<svg width="153" height="49" viewBox="0 0 153 49" fill="none" xmlns="http://www.w3.org/2000/svg">
<path d="M30.808 29.192L23.064 9.48L15.256 29.192H30.808ZM45.656 48.008H38.232L33.368 35.784H12.632L7.704 48.008H0.344L19.8 0.263996H26.776L45.656 48.008ZM87.7725 48.008H80.0925L59.6125 12.232V48.008H52.7005V0.263996H60.0605L80.8605 36.616V0.263996H87.7725V48.008ZM106.369 41.16H108.673C121.643 41.16 128.129 35.3573 128.129 23.752C128.129 12.5307 122.582 6.92 111.489 6.92H106.369V41.16ZM99.3925 0.391998H111.489C119.51 0.391998 125.547 2.61066 129.601 7.048C133.227 11.0587 135.041 16.6907 135.041 23.944C135.041 32.136 132.438 38.2587 127.233 42.312C122.667 45.9387 116.331 47.752 108.225 47.752H99.3925V0.391998ZM152.293 47.752H145.253V0.391998H152.293V47.752Z" fill="white"/>
</svg>
